<svg width="14" height="13" viewBox="0 0 14 13" fill="none" xmlns="http://www.w3.org/2000/svg">
<path d="M1.07716 11.3872C0.774332 11.6698 0.774332 12.128 1.07716 12.4106C1.37999 12.6932 1.87098 12.6932 2.17381 12.4106L1.07716 11.3872ZM13.4868 1.55347C13.4868 1.1538 13.1396 0.829809 12.7114 0.829809H5.73232C5.30405 0.829809 4.95687 1.1538 4.95687 1.55347C4.95687 1.95313 5.30405 2.27712 5.73232 2.27712H11.9359L11.9359 8.06638C11.9359 8.46605 12.2831 8.79004 12.7114 8.79004C13.1396 8.79004 13.4868 8.46605 13.4868 8.06638V1.55347ZM2.17381 12.4106L13.2597 2.06517L12.163 1.04176L1.07716 11.3872L2.17381 12.4106Z" fill="black"/>
</svg>
