<svg width="20" height="20" viewBox="0 0 20 20" fill="none" xmlns="http://www.w3.org/2000/svg">
<path d="M0.524157 17.404C-0.0188319 17.947 -0.0188319 18.8274 0.524157 19.3703C1.06715 19.9133 1.9475 19.9133 2.49049 19.3703L0.524157 17.404ZM19.824 1.46094C19.824 0.693036 19.2015 0.0705285 18.4336 0.0705285H5.91988C5.15198 0.0705285 4.52948 0.693036 4.52948 1.46094C4.52948 2.22884 5.15198 2.85135 5.91988 2.85135H17.0432V13.9746C17.0432 14.7425 17.6657 15.365 18.4336 15.365C19.2015 15.365 19.824 14.7425 19.824 13.9746V1.46094ZM2.49049 19.3703L19.4167 2.44411L17.4504 0.47777L0.524157 17.404L2.49049 19.3703Z" fill="white"/>
</svg>
