<svg width="587" height="618" viewBox="0 0 587 618" fill="none" xmlns="http://www.w3.org/2000/svg">
<g opacity="0.9">
<path d="M262.068 393.11C256.883 391.282 252.282 388.004 248.836 383.695L211.305 337.071C204.644 328.821 202.905 317.629 206.746 307.758L228.379 251.916C232.134 242.085 240.907 234.96 251.304 233.229L310.446 224.076C315.309 223.344 320.26 223.794 324.868 225.419C330.052 227.247 334.676 230.461 338.122 234.77L375.717 281.417C382.379 289.667 384.182 300.881 380.405 310.775L358.749 366.681C354.908 376.553 346.093 383.592 335.655 385.236L276.49 394.454C271.626 395.185 266.676 394.735 262.068 393.11ZM321.494 235.6C318.55 234.561 315.399 234.314 312.342 234.819L253.024 244.27C246.395 245.315 240.843 249.834 238.353 256.08L216.697 311.986C214.27 318.255 215.372 325.336 219.552 330.624L257.147 377.27C259.353 379.991 262.215 382.08 265.543 383.254C268.487 384.292 271.638 384.539 274.673 384.098L333.901 374.903C340.53 373.858 346.146 369.362 348.572 363.093L370.228 307.187C372.655 300.918 371.553 293.838 367.35 288.614L329.778 241.903C327.68 239.076 324.777 236.901 321.494 235.6Z" fill="url(#paint0_linear_253_2383)"/>
<path d="M224.797 404.723C219.421 402.827 215.113 398.717 213.037 393.38L177.477 300.963C174.949 294.459 176.171 287.117 180.536 281.676L242.738 204.662C247.167 199.244 254.146 196.595 261.039 197.659L359.166 213.046C360.322 213.238 361.519 213.516 362.671 213.922C368.047 215.818 372.355 219.927 374.431 225.265L409.991 317.682C412.497 324.25 411.275 331.591 406.91 337.032L344.366 413.998C339.936 419.416 332.999 422.151 326.019 421.129L228.302 405.599C227.147 405.407 225.949 405.129 224.797 404.723ZM358.763 223.986C358.251 223.805 357.739 223.625 357.227 223.444L259.333 208.211C256.208 207.685 253.076 208.811 251.059 211.266L188.707 288.299C186.712 290.691 186.183 294.03 187.313 296.947L222.873 389.364C223.819 391.784 225.826 393.643 228.258 394.501L229.794 395.042L327.643 410.404C330.767 410.93 333.899 409.803 335.916 407.348L398.141 330.27C400.135 327.879 400.642 324.604 399.512 321.686L363.952 229.27C363.093 226.808 361.172 224.907 358.763 223.986Z" fill="url(#paint1_linear_253_2383)"/>
<path d="M295.562 454.647L293.322 453.857L186.433 406.38C176.422 401.914 169.545 392.437 168.337 381.577L155.903 265.004C154.782 254.102 159.473 243.451 168.299 236.992L263.097 167.946C271.208 161.882 281.797 160.219 291.42 163.54L293.66 164.33L400.715 212.154C410.726 216.62 417.603 226.097 418.811 236.957L431.245 353.53C432.366 364.432 427.675 375.083 418.785 381.519L324.051 450.588C315.813 456.607 305.118 458.161 295.562 454.647ZM287.741 173.973C281.597 171.806 274.712 172.761 269.45 176.662L174.999 245.543C168.981 249.754 165.745 256.888 166.564 264.158L178.998 380.73C179.757 387.762 184.224 393.871 190.699 396.73L297.867 444.234L299.083 444.663C305.228 446.829 312.113 445.875 317.374 441.973L412.108 372.904C417.825 368.731 420.906 361.83 420.147 354.798L407.909 238.078C407.173 230.982 402.706 224.874 396.23 222.015L289.191 174.556L287.719 174.037L287.741 173.973Z" fill="url(#paint2_linear_253_2383)"/>
<path d="M275.349 486.667C272.661 485.72 270.149 484.474 267.728 482.973L147.783 407.216C136.382 399.958 129.734 387.179 130.246 373.687L135.957 231.777C136.533 218.307 144.213 206.119 156.148 199.821L281.646 134.116C290.94 129.19 301.879 128.37 311.8 131.868C314.488 132.816 316.999 134.061 319.42 135.562L439.365 211.319C450.703 218.555 457.437 231.292 456.925 244.784L451.214 386.694C450.638 400.164 442.959 412.352 431.023 418.65L305.48 484.483C296.209 489.345 285.269 490.166 275.349 486.667ZM308.211 142.044C301.107 139.539 293.262 140.155 286.633 143.647L161.109 209.63C152.617 214.12 147.101 222.825 146.656 232.455L140.945 374.365C140.564 384.017 145.343 393.115 153.518 398.3L273.531 473.865C275.251 474.903 277.017 475.814 278.937 476.491C286.042 478.996 293.8 478.422 300.493 474.952L426.04 408.905C434.531 404.415 440.048 395.71 440.493 386.08L446.204 244.17C446.585 234.518 441.805 225.42 433.631 220.235L313.618 144.67C311.897 143.632 310.131 142.721 308.211 142.044Z" fill="url(#paint3_linear_253_2383)"/>
<path d="M253.685 516.88C249.46 515.39 245.484 513.197 241.971 510.303L107.945 402.235C96.9386 393.245 91.4721 379.156 93.6252 365.091L120.278 195.016C122.581 180.932 132.272 169.165 145.559 164.136L305.895 102.08C314.82 98.6064 324.653 98.4755 333.655 101.722C338.007 103.256 342.111 105.495 345.689 108.412L479.271 216.107C490.299 225.033 495.743 239.186 493.59 253.251L466.938 423.326C464.634 437.409 454.944 449.176 441.656 454.206L280.996 516.364C272.245 519.754 262.54 519.93 253.685 516.88ZM330.067 111.898C323.538 109.596 316.476 109.625 310.017 112.025L149.165 174.115C139.57 177.856 132.619 186.343 130.985 196.489L104.396 366.586C102.803 376.819 106.725 387.125 114.79 393.639L248.771 501.834C251.354 503.897 254.246 505.492 257.318 506.575C263.824 508.941 270.886 508.913 277.368 506.449L437.983 444.419C447.578 440.678 454.529 432.191 456.163 422.045L482.82 251.756C484.413 241.523 480.491 231.217 472.425 224.703L338.399 116.635C335.88 114.596 333.075 112.959 330.067 111.898Z" fill="url(#paint4_linear_253_2383)"/>
<path d="M208.823 543.086C201.079 540.356 194.121 535.599 188.863 529.284L58.5953 373.824C48.0811 361.193 45.072 344.012 50.7257 328.591L120.209 138.07C125.863 122.649 139.299 111.483 155.425 108.606L354.921 73.4553C362.672 72.0865 370.645 72.7392 378.07 75.3572C385.814 78.088 392.686 82.8858 398.029 89.1598L528.553 244.71C539.068 257.341 542.077 274.522 536.423 289.943L466.94 480.464C461.286 495.885 447.85 507.051 431.723 509.928L232.228 545.079C224.391 546.489 216.289 545.791 208.823 543.086ZM374.715 85.6881C369.018 83.6795 362.931 83.1881 357.01 84.2665L157.537 119.353C145.178 121.544 134.941 130.168 130.574 141.941L60.7931 332.285C56.5539 344.103 58.839 357.214 66.8716 366.883L197.14 522.344C201.199 527.157 206.459 530.811 212.412 532.91C218.108 534.918 224.195 535.41 230.158 534.418L429.654 499.267C442.012 497.077 452.313 488.475 456.616 476.68L526.164 286.181C530.403 274.363 528.118 261.252 520.085 251.583L390.009 96.1905C385.95 91.3768 380.667 87.787 374.715 85.6881Z" fill="url(#paint5_linear_253_2383)"/>
</g>
<defs>
<linearGradient id="paint0_linear_253_2383" x1="215.863" y1="281.9" x2="371.264" y2="336.697" gradientUnits="userSpaceOnUse">
<stop stop-color="#70C17E"/>
<stop offset="0.17" stop-color="#6AB682"/>
<stop offset="0.48" stop-color="#5B978D"/>
<stop offset="0.88" stop-color="#43669F"/>
<stop offset="1" stop-color="#3B56A5"/>
</linearGradient>
<linearGradient id="paint1_linear_253_2383" x1="183.285" y1="270.412" x2="403.841" y2="348.184" gradientUnits="userSpaceOnUse">
<stop stop-color="#70C17E"/>
<stop offset="0.17" stop-color="#6AB682"/>
<stop offset="0.48" stop-color="#5B978D"/>
<stop offset="0.88" stop-color="#43669F"/>
<stop offset="1" stop-color="#3B56A5"/>
</linearGradient>
<linearGradient id="paint2_linear_253_2383" x1="154.464" y1="260.107" x2="432.752" y2="358.235" gradientUnits="userSpaceOnUse">
<stop stop-color="#70C17E"/>
<stop offset="0.17" stop-color="#6AB682"/>
<stop offset="0.48" stop-color="#5B978D"/>
<stop offset="0.88" stop-color="#43669F"/>
<stop offset="1" stop-color="#3B56A5"/>
</linearGradient>
<linearGradient id="paint3_linear_253_2383" x1="127.537" y1="250.756" x2="459.653" y2="367.865" gradientUnits="userSpaceOnUse">
<stop stop-color="#70C17E"/>
<stop offset="0.17" stop-color="#6AB682"/>
<stop offset="0.48" stop-color="#5B978D"/>
<stop offset="0.88" stop-color="#43669F"/>
<stop offset="1" stop-color="#3B56A5"/>
</linearGradient>
<linearGradient id="paint4_linear_253_2383" x1="103.046" y1="242.048" x2="484.124" y2="376.422" gradientUnits="userSpaceOnUse">
<stop stop-color="#70C17E"/>
<stop offset="0.17" stop-color="#6AB682"/>
<stop offset="0.48" stop-color="#5B978D"/>
<stop offset="0.88" stop-color="#43669F"/>
<stop offset="1" stop-color="#3B56A5"/>
</linearGradient>
<linearGradient id="paint5_linear_253_2383" x1="83.6308" y1="235.274" x2="503.495" y2="383.324" gradientUnits="userSpaceOnUse">
<stop stop-color="#70C17E"/>
<stop offset="0.17" stop-color="#6AB682"/>
<stop offset="0.48" stop-color="#5B978D"/>
<stop offset="0.88" stop-color="#43669F"/>
<stop offset="1" stop-color="#3B56A5"/>
</linearGradient>
</defs>
</svg>
