<svg width="121" height="136" viewBox="0 0 121 136" fill="none" xmlns="http://www.w3.org/2000/svg">
<path d="M60.4882 92.1391C59.0065 92.1391 57.5431 91.7184 56.2809 90.9318L42.5616 82.4442C40.1287 80.9442 38.6836 78.2552 38.7751 75.4016L39.269 59.2677C39.3422 56.4324 40.9336 53.8349 43.4214 52.4629L57.6345 44.835C58.8053 44.2131 60.104 43.8838 61.4211 43.8838C62.9028 43.8838 64.3661 44.2862 65.6283 45.0728L79.3659 53.5605C81.7988 55.0604 83.2622 57.7494 83.189 60.603L82.6951 76.7552C82.6037 79.6088 80.9939 82.1881 78.4879 83.5417L64.2747 91.1879C63.104 91.8099 61.8052 92.1391 60.4882 92.1391ZM61.476 46.774C60.6345 46.774 59.8113 46.9935 59.0796 47.3959L44.8482 55.1153C43.2567 55.9751 42.2506 57.6214 42.1775 59.4323L41.6836 75.5845C41.6287 77.3955 42.5433 79.0966 44.0799 80.0661L57.8175 88.5538C58.6223 89.0477 59.537 89.3221 60.4882 89.3221C61.3296 89.3221 62.1528 89.1026 62.8845 88.7184L77.1159 81.0722C78.7074 80.2125 79.7318 78.5662 79.7866 76.7552L80.2805 60.603C80.3354 58.7921 79.4208 57.0909 77.8842 56.1397L64.1466 47.6337C63.3601 47.1033 62.4272 46.8106 61.476 46.774Z" fill="url(#paint0_linear_242_2518)"/>
<path d="M52.0551 98.431C50.5186 98.431 49.0552 97.7725 48.0491 96.6018L30.7262 76.2973C29.5006 74.8705 29.153 72.8949 29.775 71.1205L38.6834 45.9685C39.3236 44.1941 40.8602 42.8954 42.7077 42.5478L69.0305 37.6637C69.3414 37.6088 69.6707 37.5723 69.9999 37.5723C71.5365 37.5723 72.9999 38.2308 74.006 39.4015L91.3289 59.7061C92.5545 61.1512 92.902 63.1267 92.2801 64.9011L83.2802 90.0714C82.64 91.8458 81.1217 93.1628 79.2559 93.5287L53.0246 98.3396C52.7136 98.3945 52.3844 98.431 52.0551 98.431ZM69.9085 40.4808C69.7621 40.4808 69.6158 40.4808 69.4695 40.4808L43.2199 45.3831C42.3784 45.5295 41.6833 46.0965 41.3906 46.9014L32.4457 72.0717C32.153 72.8583 32.3176 73.7546 32.8664 74.3948L50.1893 94.6994C50.6466 95.2299 51.3234 95.5226 52.0185 95.5226H52.4575L78.7071 90.6568C79.5486 90.5104 80.2437 89.9434 80.5364 89.1385L89.4448 63.9682C89.7374 63.1816 89.5728 62.3036 89.024 61.6633L71.7011 41.3588C71.2621 40.81 70.6036 40.499 69.9085 40.4808Z" fill="url(#paint1_linear_242_2518)"/>
<path d="M74.5181 104.779H73.8778L42.4515 102.291C39.5064 102.054 36.9089 100.261 35.6284 97.6086L22.0189 69.0908C20.7567 66.4201 20.9945 63.2921 22.6591 60.8592L40.5674 34.8108C42.0856 32.5426 44.6283 31.1706 47.3721 31.1523H48.0124L79.5119 33.7133C82.4569 33.9511 85.0545 35.7437 86.3349 38.3961L99.9445 66.914C101.207 69.5847 100.969 72.7127 99.286 75.1455L81.396 101.194C79.8411 103.462 77.2619 104.816 74.5181 104.779ZM47.3721 34.134C45.6161 34.134 43.9515 34.9937 42.9637 36.4571L25.1286 62.4323C23.9762 64.0421 23.7932 66.1457 24.653 67.92L38.2625 96.4379C39.0857 98.1574 40.7686 99.3098 42.671 99.4561L74.1705 101.926H74.5181C76.2741 101.926 77.9387 101.066 78.9265 99.6025L96.8165 73.5541C97.8957 71.981 98.0604 69.9505 97.2372 68.231L83.6642 39.6583C82.8411 37.9205 81.1582 36.7681 79.2558 36.6218L47.7929 34.1523H47.3721V34.134Z" fill="url(#paint2_linear_242_2518)"/>
<path d="M72.2503 114.73C71.482 114.73 70.732 114.639 69.982 114.474L32.7021 105.968C29.1534 105.145 26.3181 102.493 25.2388 99.0171L13.9707 62.4323C12.9098 58.9567 13.7695 55.1702 16.239 52.4995L42.2508 24.5488C44.1715 22.4634 46.8787 21.2744 49.7141 21.2744C50.4823 21.2744 51.2323 21.3659 51.9823 21.5305L89.2622 30.0365C92.7926 30.8596 95.6463 33.4937 96.7255 36.9693L107.994 73.5541C109.055 77.0296 108.195 80.8162 105.725 83.4868L79.7136 111.474C77.7929 113.541 75.0856 114.73 72.2503 114.73ZM49.7141 24.1829C47.6836 24.1829 45.7446 25.0426 44.3727 26.5243L18.3792 54.5483C16.6231 56.4507 16.0012 59.158 16.7512 61.6457L28.0193 98.2305C28.7876 100.718 30.818 102.602 33.3607 103.188L70.6406 111.639C71.171 111.749 71.7015 111.822 72.2503 111.822C74.2807 111.822 76.2015 110.98 77.5917 109.499L103.585 81.4564C105.341 79.554 105.963 76.8467 105.213 74.3589L93.9451 37.7742C93.1768 35.2864 91.1463 33.4023 88.6037 32.8169L51.3238 24.3658C50.7933 24.2561 50.2628 24.1829 49.7141 24.1829Z" fill="url(#paint3_linear_242_2518)"/>
<path d="M69.4514 124.352C68.2441 124.352 67.0368 124.151 65.8844 123.73L22.129 108.273C18.5254 106.974 15.873 103.883 15.1596 100.115L6.69021 54.4934C6.01339 50.7069 7.4219 46.8472 10.3487 44.3777L45.5433 14.2318C47.5005 12.5489 49.9883 11.6343 52.5675 11.6526C53.8114 11.6526 55.0553 11.8538 56.226 12.2746L99.8351 27.6767C103.439 28.9572 106.091 32.0669 106.804 35.8352L115.274 81.4564C115.951 85.2429 114.542 89.1026 111.615 91.5721L76.3476 121.773C74.4269 123.419 71.9758 124.334 69.4514 124.352ZM52.5675 14.5611C50.7017 14.5611 48.909 15.2013 47.4822 16.3903L12.1596 46.5911C10.056 48.402 9.04993 51.1825 9.54382 53.908L18.0315 99.5293C18.5437 102.273 20.4644 104.541 23.0985 105.474L66.8539 120.968C67.6953 121.261 68.5734 121.407 69.4514 121.407C71.3172 121.425 73.1099 120.785 74.5367 119.578L109.804 89.4136C111.908 87.6026 112.914 84.8222 112.42 82.0966L103.933 36.4205C103.42 33.6766 101.5 31.4084 98.8656 30.4755L55.1102 15.0184C54.287 14.7257 53.4273 14.5611 52.5675 14.5611Z" fill="url(#paint4_linear_242_2518)"/>
<path d="M60.3966 135.035C58.1832 135.035 55.9881 134.449 54.0857 133.315L7.03767 105.474C3.23286 103.206 0.928015 99.1084 0.982892 94.6816L1.56825 40.024C1.62313 35.5972 4.03772 31.5546 7.87912 29.3778L55.4393 2.56116C57.2869 1.5185 59.3722 0.969727 61.4941 0.969727C63.7075 0.969727 65.8843 1.57338 67.805 2.68921L114.926 30.5302C118.731 32.7985 121.036 36.896 120.981 41.3227L120.396 95.9804C120.341 100.407 117.926 104.45 114.085 106.627L66.5245 133.443C64.6587 134.504 62.5368 135.053 60.3966 135.035ZM61.5673 3.89651C59.9393 3.89651 58.3478 4.31723 56.9393 5.1221L9.3791 31.9205C6.43403 33.5851 4.60479 36.6948 4.54991 40.0789L3.87309 94.7182C3.8548 98.1023 5.61087 101.23 8.51936 102.968L55.5674 130.809C57.0308 131.669 58.6954 132.126 60.3966 132.126C62.0246 132.126 63.616 131.705 65.0428 130.919L112.603 104.102C115.548 102.438 117.396 99.3279 117.432 95.9438L118.036 41.2862C118.054 37.9021 116.298 34.7741 113.39 33.0363L66.3965 5.19527C64.9331 4.33553 63.2685 3.89651 61.5673 3.89651Z" fill="url(#paint5_linear_242_2518)"/>
<defs>
<linearGradient id="paint0_linear_242_2518" x1="38.7751" y1="68.0115" x2="83.189" y2="68.0115" gradientUnits="userSpaceOnUse">
<stop stop-color="#70C17E"/>
<stop offset="0.17" stop-color="#6AB682"/>
<stop offset="0.48" stop-color="#5B978D"/>
<stop offset="0.88" stop-color="#43669F"/>
<stop offset="1" stop-color="#3B56A5"/>
</linearGradient>
<linearGradient id="paint1_linear_242_2518" x1="29.464" y1="68.0108" x2="92.4996" y2="68.0108" gradientUnits="userSpaceOnUse">
<stop stop-color="#70C17E"/>
<stop offset="0.17" stop-color="#6AB682"/>
<stop offset="0.48" stop-color="#5B978D"/>
<stop offset="0.88" stop-color="#43669F"/>
<stop offset="1" stop-color="#3B56A5"/>
</linearGradient>
<linearGradient id="paint2_linear_242_2518" x1="21.214" y1="67.9749" x2="100.749" y2="67.9749" gradientUnits="userSpaceOnUse">
<stop stop-color="#70C17E"/>
<stop offset="0.17" stop-color="#6AB682"/>
<stop offset="0.48" stop-color="#5B978D"/>
<stop offset="0.88" stop-color="#43669F"/>
<stop offset="1" stop-color="#3B56A5"/>
</linearGradient>
<linearGradient id="paint3_linear_242_2518" x1="13.5317" y1="68.0115" x2="108.451" y2="68.0115" gradientUnits="userSpaceOnUse">
<stop stop-color="#70C17E"/>
<stop offset="0.17" stop-color="#6AB682"/>
<stop offset="0.48" stop-color="#5B978D"/>
<stop offset="0.88" stop-color="#43669F"/>
<stop offset="1" stop-color="#3B56A5"/>
</linearGradient>
<linearGradient id="paint4_linear_242_2518" x1="6.52558" y1="67.9932" x2="115.438" y2="67.9932" gradientUnits="userSpaceOnUse">
<stop stop-color="#70C17E"/>
<stop offset="0.17" stop-color="#6AB682"/>
<stop offset="0.48" stop-color="#5B978D"/>
<stop offset="0.88" stop-color="#43669F"/>
<stop offset="1" stop-color="#3B56A5"/>
</linearGradient>
<linearGradient id="paint5_linear_242_2518" x1="0.982892" y1="68.0113" x2="120.981" y2="68.0113" gradientUnits="userSpaceOnUse">
<stop stop-color="#70C17E"/>
<stop offset="0.17" stop-color="#6AB682"/>
<stop offset="0.48" stop-color="#5B978D"/>
<stop offset="0.88" stop-color="#43669F"/>
<stop offset="1" stop-color="#3B56A5"/>
</linearGradient>
</defs>
</svg>
